%TF.GenerationSoftware,KiCad,Pcbnew,5.1.9+dfsg1-1*%
%TF.CreationDate,2021-09-21T21:20:37+00:00*%
%TF.ProjectId,wanted_morse,77616e74-6564-45f6-9d6f-7273652e6b69,rev?*%
%TF.SameCoordinates,Original*%
%TF.FileFunction,Copper,L2,Bot*%
%TF.FilePolarity,Positive*%
%FSLAX46Y46*%
G04 Gerber Fmt 4.6, Leading zero omitted, Abs format (unit mm)*
G04 Created by KiCad (PCBNEW 5.1.9+dfsg1-1) date 2021-09-21 21:20:37*
%MOMM*%
%LPD*%
G01*
G04 APERTURE LIST*
%TA.AperFunction,ComponentPad*%
%ADD10C,1.400000*%
%TD*%
%TA.AperFunction,ComponentPad*%
%ADD11R,1.400000X1.400000*%
%TD*%
%TA.AperFunction,ComponentPad*%
%ADD12C,2.000000*%
%TD*%
%TA.AperFunction,ComponentPad*%
%ADD13R,2.000000X2.000000*%
%TD*%
%TA.AperFunction,ComponentPad*%
%ADD14O,1.600000X1.600000*%
%TD*%
%TA.AperFunction,ComponentPad*%
%ADD15R,1.600000X1.600000*%
%TD*%
%TA.AperFunction,Conductor*%
%ADD16C,1.016000*%
%TD*%
%TA.AperFunction,Conductor*%
%ADD17C,0.254000*%
%TD*%
%TA.AperFunction,Conductor*%
%ADD18C,0.100000*%
%TD*%
G04 APERTURE END LIST*
D10*
%TO.P,12V,2*%
%TO.N,+12V*%
X127000000Y-44450000D03*
D11*
%TO.P,12V,1*%
%TO.N,GND*%
X127000000Y-48260000D03*
%TD*%
D12*
%TO.P,BZ1,2*%
%TO.N,GND*%
X127000000Y-63520000D03*
D13*
%TO.P,BZ1,1*%
%TO.N,Net-(A1-Pad11)*%
X127000000Y-71120000D03*
%TD*%
D14*
%TO.P,A1,16*%
%TO.N,Net-(A1-Pad16)*%
X153670000Y-81280000D03*
%TO.P,A1,15*%
%TO.N,Net-(A1-Pad15)*%
X138430000Y-81280000D03*
%TO.P,A1,30*%
%TO.N,+12V*%
X153670000Y-45720000D03*
%TO.P,A1,14*%
%TO.N,Net-(A1-Pad14)*%
X138430000Y-78740000D03*
%TO.P,A1,29*%
%TO.N,Net-(A1-Pad29)*%
X153670000Y-48260000D03*
%TO.P,A1,13*%
%TO.N,Net-(A1-Pad13)*%
X138430000Y-76200000D03*
%TO.P,A1,28*%
%TO.N,Net-(A1-Pad28)*%
X153670000Y-50800000D03*
%TO.P,A1,12*%
%TO.N,Net-(A1-Pad12)*%
X138430000Y-73660000D03*
%TO.P,A1,27*%
%TO.N,Net-(A1-Pad27)*%
X153670000Y-53340000D03*
%TO.P,A1,11*%
%TO.N,Net-(A1-Pad11)*%
X138430000Y-71120000D03*
%TO.P,A1,26*%
%TO.N,Net-(A1-Pad26)*%
X153670000Y-55880000D03*
%TO.P,A1,10*%
%TO.N,Net-(A1-Pad10)*%
X138430000Y-68580000D03*
%TO.P,A1,25*%
%TO.N,Net-(A1-Pad25)*%
X153670000Y-58420000D03*
%TO.P,A1,9*%
%TO.N,Net-(A1-Pad9)*%
X138430000Y-66040000D03*
%TO.P,A1,24*%
%TO.N,Net-(A1-Pad24)*%
X153670000Y-60960000D03*
%TO.P,A1,8*%
%TO.N,Net-(A1-Pad8)*%
X138430000Y-63500000D03*
%TO.P,A1,23*%
%TO.N,Net-(A1-Pad23)*%
X153670000Y-63500000D03*
%TO.P,A1,7*%
%TO.N,Net-(A1-Pad7)*%
X138430000Y-60960000D03*
%TO.P,A1,22*%
%TO.N,Net-(A1-Pad22)*%
X153670000Y-66040000D03*
%TO.P,A1,6*%
%TO.N,Net-(A1-Pad6)*%
X138430000Y-58420000D03*
%TO.P,A1,21*%
%TO.N,Net-(A1-Pad21)*%
X153670000Y-68580000D03*
%TO.P,A1,5*%
%TO.N,Net-(A1-Pad5)*%
X138430000Y-55880000D03*
%TO.P,A1,20*%
%TO.N,Net-(A1-Pad20)*%
X153670000Y-71120000D03*
%TO.P,A1,4*%
%TO.N,GND*%
X138430000Y-53340000D03*
%TO.P,A1,19*%
%TO.N,Net-(A1-Pad19)*%
X153670000Y-73660000D03*
%TO.P,A1,3*%
%TO.N,Net-(A1-Pad3)*%
X138430000Y-50800000D03*
%TO.P,A1,18*%
%TO.N,Net-(A1-Pad18)*%
X153670000Y-76200000D03*
%TO.P,A1,2*%
%TO.N,Net-(A1-Pad2)*%
X138430000Y-48260000D03*
%TO.P,A1,17*%
%TO.N,Net-(A1-Pad17)*%
X153670000Y-78740000D03*
D15*
%TO.P,A1,1*%
%TO.N,Net-(A1-Pad1)*%
X138430000Y-45720000D03*
%TD*%
D16*
%TO.N,+12V*%
X151700001Y-43750001D02*
X153670000Y-45720000D01*
X127699999Y-43750001D02*
X127000000Y-44450000D01*
X151700001Y-43750001D02*
X127699999Y-43750001D01*
%TO.N,Net-(A1-Pad11)*%
X138430000Y-71120000D02*
X125730000Y-71120000D01*
%TD*%
D17*
%TO.N,GND*%
X161900001Y-88240000D02*
X121310000Y-88240000D01*
X121310000Y-83649117D01*
X123995000Y-83649117D01*
X123995000Y-83990883D01*
X124061675Y-84326081D01*
X124192463Y-84641831D01*
X124382337Y-84925998D01*
X124624002Y-85167663D01*
X124908169Y-85357537D01*
X125223919Y-85488325D01*
X125559117Y-85555000D01*
X125900883Y-85555000D01*
X126236081Y-85488325D01*
X126551831Y-85357537D01*
X126835998Y-85167663D01*
X127077663Y-84925998D01*
X127267537Y-84641831D01*
X127398325Y-84326081D01*
X127465000Y-83990883D01*
X127465000Y-83649117D01*
X127398325Y-83313919D01*
X127267537Y-82998169D01*
X127077663Y-82714002D01*
X126835998Y-82472337D01*
X126551831Y-82282463D01*
X126236081Y-82151675D01*
X125900883Y-82085000D01*
X125559117Y-82085000D01*
X125223919Y-82151675D01*
X124908169Y-82282463D01*
X124624002Y-82472337D01*
X124382337Y-82714002D01*
X124192463Y-82998169D01*
X124061675Y-83313919D01*
X123995000Y-83649117D01*
X121310000Y-83649117D01*
X121310000Y-71120000D01*
X124581470Y-71120000D01*
X124603539Y-71344067D01*
X124668897Y-71559523D01*
X124775032Y-71758089D01*
X124917867Y-71932133D01*
X125091911Y-72074968D01*
X125290477Y-72181103D01*
X125370332Y-72205327D01*
X125374188Y-72244482D01*
X125410498Y-72364180D01*
X125469463Y-72474494D01*
X125548815Y-72571185D01*
X125645506Y-72650537D01*
X125755820Y-72709502D01*
X125875518Y-72745812D01*
X126000000Y-72758072D01*
X128000000Y-72758072D01*
X128124482Y-72745812D01*
X128244180Y-72709502D01*
X128354494Y-72650537D01*
X128451185Y-72571185D01*
X128530537Y-72474494D01*
X128589502Y-72364180D01*
X128620195Y-72263000D01*
X137557689Y-72263000D01*
X137747759Y-72390000D01*
X137515241Y-72545363D01*
X137315363Y-72745241D01*
X137158320Y-72980273D01*
X137050147Y-73241426D01*
X136995000Y-73518665D01*
X136995000Y-73801335D01*
X137050147Y-74078574D01*
X137158320Y-74339727D01*
X137315363Y-74574759D01*
X137515241Y-74774637D01*
X137747759Y-74930000D01*
X137515241Y-75085363D01*
X137315363Y-75285241D01*
X137158320Y-75520273D01*
X137050147Y-75781426D01*
X136995000Y-76058665D01*
X136995000Y-76341335D01*
X137050147Y-76618574D01*
X137158320Y-76879727D01*
X137315363Y-77114759D01*
X137515241Y-77314637D01*
X137747759Y-77470000D01*
X137515241Y-77625363D01*
X137315363Y-77825241D01*
X137158320Y-78060273D01*
X137050147Y-78321426D01*
X136995000Y-78598665D01*
X136995000Y-78881335D01*
X137050147Y-79158574D01*
X137158320Y-79419727D01*
X137315363Y-79654759D01*
X137515241Y-79854637D01*
X137747759Y-80010000D01*
X137515241Y-80165363D01*
X137315363Y-80365241D01*
X137158320Y-80600273D01*
X137050147Y-80861426D01*
X136995000Y-81138665D01*
X136995000Y-81421335D01*
X137050147Y-81698574D01*
X137158320Y-81959727D01*
X137315363Y-82194759D01*
X137515241Y-82394637D01*
X137750273Y-82551680D01*
X138011426Y-82659853D01*
X138288665Y-82715000D01*
X138571335Y-82715000D01*
X138848574Y-82659853D01*
X139109727Y-82551680D01*
X139344759Y-82394637D01*
X139544637Y-82194759D01*
X139701680Y-81959727D01*
X139809853Y-81698574D01*
X139865000Y-81421335D01*
X139865000Y-81138665D01*
X139809853Y-80861426D01*
X139701680Y-80600273D01*
X139544637Y-80365241D01*
X139344759Y-80165363D01*
X139112241Y-80010000D01*
X139344759Y-79854637D01*
X139544637Y-79654759D01*
X139701680Y-79419727D01*
X139809853Y-79158574D01*
X139865000Y-78881335D01*
X139865000Y-78598665D01*
X139809853Y-78321426D01*
X139701680Y-78060273D01*
X139544637Y-77825241D01*
X139344759Y-77625363D01*
X139112241Y-77470000D01*
X139344759Y-77314637D01*
X139544637Y-77114759D01*
X139701680Y-76879727D01*
X139809853Y-76618574D01*
X139865000Y-76341335D01*
X139865000Y-76058665D01*
X139809853Y-75781426D01*
X139701680Y-75520273D01*
X139544637Y-75285241D01*
X139344759Y-75085363D01*
X139112241Y-74930000D01*
X139344759Y-74774637D01*
X139544637Y-74574759D01*
X139701680Y-74339727D01*
X139809853Y-74078574D01*
X139865000Y-73801335D01*
X139865000Y-73518665D01*
X139809853Y-73241426D01*
X139701680Y-72980273D01*
X139544637Y-72745241D01*
X139344759Y-72545363D01*
X139112241Y-72390000D01*
X139344759Y-72234637D01*
X139544637Y-72034759D01*
X139701680Y-71799727D01*
X139809853Y-71538574D01*
X139865000Y-71261335D01*
X139865000Y-70978665D01*
X139809853Y-70701426D01*
X139701680Y-70440273D01*
X139544637Y-70205241D01*
X139344759Y-70005363D01*
X139112241Y-69850000D01*
X139344759Y-69694637D01*
X139544637Y-69494759D01*
X139701680Y-69259727D01*
X139809853Y-68998574D01*
X139865000Y-68721335D01*
X139865000Y-68438665D01*
X139809853Y-68161426D01*
X139701680Y-67900273D01*
X139544637Y-67665241D01*
X139344759Y-67465363D01*
X139112241Y-67310000D01*
X139344759Y-67154637D01*
X139544637Y-66954759D01*
X139701680Y-66719727D01*
X139809853Y-66458574D01*
X139865000Y-66181335D01*
X139865000Y-65898665D01*
X139809853Y-65621426D01*
X139701680Y-65360273D01*
X139544637Y-65125241D01*
X139344759Y-64925363D01*
X139112241Y-64770000D01*
X139344759Y-64614637D01*
X139544637Y-64414759D01*
X139701680Y-64179727D01*
X139809853Y-63918574D01*
X139865000Y-63641335D01*
X139865000Y-63358665D01*
X139809853Y-63081426D01*
X139701680Y-62820273D01*
X139544637Y-62585241D01*
X139344759Y-62385363D01*
X139112241Y-62230000D01*
X139344759Y-62074637D01*
X139544637Y-61874759D01*
X139701680Y-61639727D01*
X139809853Y-61378574D01*
X139865000Y-61101335D01*
X139865000Y-60818665D01*
X139809853Y-60541426D01*
X139701680Y-60280273D01*
X139544637Y-60045241D01*
X139344759Y-59845363D01*
X139112241Y-59690000D01*
X139344759Y-59534637D01*
X139544637Y-59334759D01*
X139701680Y-59099727D01*
X139809853Y-58838574D01*
X139865000Y-58561335D01*
X139865000Y-58278665D01*
X139809853Y-58001426D01*
X139701680Y-57740273D01*
X139544637Y-57505241D01*
X139344759Y-57305363D01*
X139112241Y-57150000D01*
X139344759Y-56994637D01*
X139544637Y-56794759D01*
X139701680Y-56559727D01*
X139809853Y-56298574D01*
X139865000Y-56021335D01*
X139865000Y-55738665D01*
X139809853Y-55461426D01*
X139701680Y-55200273D01*
X139544637Y-54965241D01*
X139344759Y-54765363D01*
X139109727Y-54608320D01*
X139099135Y-54603933D01*
X139285131Y-54492385D01*
X139493519Y-54303414D01*
X139661037Y-54077420D01*
X139781246Y-53823087D01*
X139821904Y-53689039D01*
X139699915Y-53467000D01*
X138557000Y-53467000D01*
X138557000Y-53487000D01*
X138303000Y-53487000D01*
X138303000Y-53467000D01*
X137160085Y-53467000D01*
X137038096Y-53689039D01*
X137078754Y-53823087D01*
X137198963Y-54077420D01*
X137366481Y-54303414D01*
X137574869Y-54492385D01*
X137760865Y-54603933D01*
X137750273Y-54608320D01*
X137515241Y-54765363D01*
X137315363Y-54965241D01*
X137158320Y-55200273D01*
X137050147Y-55461426D01*
X136995000Y-55738665D01*
X136995000Y-56021335D01*
X137050147Y-56298574D01*
X137158320Y-56559727D01*
X137315363Y-56794759D01*
X137515241Y-56994637D01*
X137747759Y-57150000D01*
X137515241Y-57305363D01*
X137315363Y-57505241D01*
X137158320Y-57740273D01*
X137050147Y-58001426D01*
X136995000Y-58278665D01*
X136995000Y-58561335D01*
X137050147Y-58838574D01*
X137158320Y-59099727D01*
X137315363Y-59334759D01*
X137515241Y-59534637D01*
X137747759Y-59690000D01*
X137515241Y-59845363D01*
X137315363Y-60045241D01*
X137158320Y-60280273D01*
X137050147Y-60541426D01*
X136995000Y-60818665D01*
X136995000Y-61101335D01*
X137050147Y-61378574D01*
X137158320Y-61639727D01*
X137315363Y-61874759D01*
X137515241Y-62074637D01*
X137747759Y-62230000D01*
X137515241Y-62385363D01*
X137315363Y-62585241D01*
X137158320Y-62820273D01*
X137050147Y-63081426D01*
X136995000Y-63358665D01*
X136995000Y-63641335D01*
X137050147Y-63918574D01*
X137158320Y-64179727D01*
X137315363Y-64414759D01*
X137515241Y-64614637D01*
X137747759Y-64770000D01*
X137515241Y-64925363D01*
X137315363Y-65125241D01*
X137158320Y-65360273D01*
X137050147Y-65621426D01*
X136995000Y-65898665D01*
X136995000Y-66181335D01*
X137050147Y-66458574D01*
X137158320Y-66719727D01*
X137315363Y-66954759D01*
X137515241Y-67154637D01*
X137747759Y-67310000D01*
X137515241Y-67465363D01*
X137315363Y-67665241D01*
X137158320Y-67900273D01*
X137050147Y-68161426D01*
X136995000Y-68438665D01*
X136995000Y-68721335D01*
X137050147Y-68998574D01*
X137158320Y-69259727D01*
X137315363Y-69494759D01*
X137515241Y-69694637D01*
X137747759Y-69850000D01*
X137557689Y-69977000D01*
X128620195Y-69977000D01*
X128589502Y-69875820D01*
X128530537Y-69765506D01*
X128451185Y-69668815D01*
X128354494Y-69589463D01*
X128244180Y-69530498D01*
X128124482Y-69494188D01*
X128000000Y-69481928D01*
X126000000Y-69481928D01*
X125875518Y-69494188D01*
X125755820Y-69530498D01*
X125645506Y-69589463D01*
X125548815Y-69668815D01*
X125469463Y-69765506D01*
X125410498Y-69875820D01*
X125374188Y-69995518D01*
X125370332Y-70034673D01*
X125290477Y-70058897D01*
X125091911Y-70165032D01*
X124917867Y-70307867D01*
X124775032Y-70481911D01*
X124668897Y-70680477D01*
X124603539Y-70895933D01*
X124581470Y-71120000D01*
X121310000Y-71120000D01*
X121310000Y-64655413D01*
X126044192Y-64655413D01*
X126139956Y-64919814D01*
X126429571Y-65060704D01*
X126741108Y-65142384D01*
X127062595Y-65161718D01*
X127381675Y-65117961D01*
X127686088Y-65012795D01*
X127860044Y-64919814D01*
X127955808Y-64655413D01*
X127000000Y-63699605D01*
X126044192Y-64655413D01*
X121310000Y-64655413D01*
X121310000Y-63582595D01*
X125358282Y-63582595D01*
X125402039Y-63901675D01*
X125507205Y-64206088D01*
X125600186Y-64380044D01*
X125864587Y-64475808D01*
X126820395Y-63520000D01*
X127179605Y-63520000D01*
X128135413Y-64475808D01*
X128399814Y-64380044D01*
X128540704Y-64090429D01*
X128622384Y-63778892D01*
X128641718Y-63457405D01*
X128597961Y-63138325D01*
X128492795Y-62833912D01*
X128399814Y-62659956D01*
X128135413Y-62564192D01*
X127179605Y-63520000D01*
X126820395Y-63520000D01*
X125864587Y-62564192D01*
X125600186Y-62659956D01*
X125459296Y-62949571D01*
X125377616Y-63261108D01*
X125358282Y-63582595D01*
X121310000Y-63582595D01*
X121310000Y-62384587D01*
X126044192Y-62384587D01*
X127000000Y-63340395D01*
X127955808Y-62384587D01*
X127860044Y-62120186D01*
X127570429Y-61979296D01*
X127258892Y-61897616D01*
X126937405Y-61878282D01*
X126618325Y-61922039D01*
X126313912Y-62027205D01*
X126139956Y-62120186D01*
X126044192Y-62384587D01*
X121310000Y-62384587D01*
X121310000Y-48960000D01*
X125661928Y-48960000D01*
X125674188Y-49084482D01*
X125710498Y-49204180D01*
X125769463Y-49314494D01*
X125848815Y-49411185D01*
X125945506Y-49490537D01*
X126055820Y-49549502D01*
X126175518Y-49585812D01*
X126300000Y-49598072D01*
X126714250Y-49595000D01*
X126873000Y-49436250D01*
X126873000Y-48387000D01*
X127127000Y-48387000D01*
X127127000Y-49436250D01*
X127285750Y-49595000D01*
X127700000Y-49598072D01*
X127824482Y-49585812D01*
X127944180Y-49549502D01*
X128054494Y-49490537D01*
X128151185Y-49411185D01*
X128230537Y-49314494D01*
X128289502Y-49204180D01*
X128325812Y-49084482D01*
X128338072Y-48960000D01*
X128335000Y-48545750D01*
X128176250Y-48387000D01*
X127127000Y-48387000D01*
X126873000Y-48387000D01*
X125823750Y-48387000D01*
X125665000Y-48545750D01*
X125661928Y-48960000D01*
X121310000Y-48960000D01*
X121310000Y-47560000D01*
X125661928Y-47560000D01*
X125665000Y-47974250D01*
X125823750Y-48133000D01*
X126873000Y-48133000D01*
X126873000Y-47083750D01*
X127127000Y-47083750D01*
X127127000Y-48133000D01*
X128176250Y-48133000D01*
X128335000Y-47974250D01*
X128338072Y-47560000D01*
X128325812Y-47435518D01*
X128289502Y-47315820D01*
X128230537Y-47205506D01*
X128151185Y-47108815D01*
X128054494Y-47029463D01*
X127944180Y-46970498D01*
X127824482Y-46934188D01*
X127700000Y-46921928D01*
X127285750Y-46925000D01*
X127127000Y-47083750D01*
X126873000Y-47083750D01*
X126714250Y-46925000D01*
X126300000Y-46921928D01*
X126175518Y-46934188D01*
X126055820Y-46970498D01*
X125945506Y-47029463D01*
X125848815Y-47108815D01*
X125769463Y-47205506D01*
X125710498Y-47315820D01*
X125674188Y-47435518D01*
X125661928Y-47560000D01*
X121310000Y-47560000D01*
X121310000Y-44318514D01*
X125665000Y-44318514D01*
X125665000Y-44581486D01*
X125716304Y-44839405D01*
X125816939Y-45082359D01*
X125963038Y-45301013D01*
X126148987Y-45486962D01*
X126367641Y-45633061D01*
X126610595Y-45733696D01*
X126868514Y-45785000D01*
X127131486Y-45785000D01*
X127389405Y-45733696D01*
X127632359Y-45633061D01*
X127851013Y-45486962D01*
X128036962Y-45301013D01*
X128183061Y-45082359D01*
X128261496Y-44893001D01*
X136994587Y-44893001D01*
X136991928Y-44920000D01*
X136991928Y-46520000D01*
X137004188Y-46644482D01*
X137040498Y-46764180D01*
X137099463Y-46874494D01*
X137178815Y-46971185D01*
X137275506Y-47050537D01*
X137385820Y-47109502D01*
X137505518Y-47145812D01*
X137513961Y-47146643D01*
X137315363Y-47345241D01*
X137158320Y-47580273D01*
X137050147Y-47841426D01*
X136995000Y-48118665D01*
X136995000Y-48401335D01*
X137050147Y-48678574D01*
X137158320Y-48939727D01*
X137315363Y-49174759D01*
X137515241Y-49374637D01*
X137747759Y-49530000D01*
X137515241Y-49685363D01*
X137315363Y-49885241D01*
X137158320Y-50120273D01*
X137050147Y-50381426D01*
X136995000Y-50658665D01*
X136995000Y-50941335D01*
X137050147Y-51218574D01*
X137158320Y-51479727D01*
X137315363Y-51714759D01*
X137515241Y-51914637D01*
X137750273Y-52071680D01*
X137760865Y-52076067D01*
X137574869Y-52187615D01*
X137366481Y-52376586D01*
X137198963Y-52602580D01*
X137078754Y-52856913D01*
X137038096Y-52990961D01*
X137160085Y-53213000D01*
X138303000Y-53213000D01*
X138303000Y-53193000D01*
X138557000Y-53193000D01*
X138557000Y-53213000D01*
X139699915Y-53213000D01*
X139821904Y-52990961D01*
X139781246Y-52856913D01*
X139661037Y-52602580D01*
X139493519Y-52376586D01*
X139285131Y-52187615D01*
X139099135Y-52076067D01*
X139109727Y-52071680D01*
X139344759Y-51914637D01*
X139544637Y-51714759D01*
X139701680Y-51479727D01*
X139809853Y-51218574D01*
X139865000Y-50941335D01*
X139865000Y-50658665D01*
X139809853Y-50381426D01*
X139701680Y-50120273D01*
X139544637Y-49885241D01*
X139344759Y-49685363D01*
X139112241Y-49530000D01*
X139344759Y-49374637D01*
X139544637Y-49174759D01*
X139701680Y-48939727D01*
X139809853Y-48678574D01*
X139865000Y-48401335D01*
X139865000Y-48118665D01*
X139809853Y-47841426D01*
X139701680Y-47580273D01*
X139544637Y-47345241D01*
X139346039Y-47146643D01*
X139354482Y-47145812D01*
X139474180Y-47109502D01*
X139584494Y-47050537D01*
X139681185Y-46971185D01*
X139760537Y-46874494D01*
X139819502Y-46764180D01*
X139855812Y-46644482D01*
X139868072Y-46520000D01*
X139868072Y-44920000D01*
X139865413Y-44893001D01*
X151226556Y-44893001D01*
X152244960Y-45911406D01*
X152290147Y-46138574D01*
X152398320Y-46399727D01*
X152555363Y-46634759D01*
X152755241Y-46834637D01*
X152987759Y-46990000D01*
X152755241Y-47145363D01*
X152555363Y-47345241D01*
X152398320Y-47580273D01*
X152290147Y-47841426D01*
X152235000Y-48118665D01*
X152235000Y-48401335D01*
X152290147Y-48678574D01*
X152398320Y-48939727D01*
X152555363Y-49174759D01*
X152755241Y-49374637D01*
X152987759Y-49530000D01*
X152755241Y-49685363D01*
X152555363Y-49885241D01*
X152398320Y-50120273D01*
X152290147Y-50381426D01*
X152235000Y-50658665D01*
X152235000Y-50941335D01*
X152290147Y-51218574D01*
X152398320Y-51479727D01*
X152555363Y-51714759D01*
X152755241Y-51914637D01*
X152987759Y-52070000D01*
X152755241Y-52225363D01*
X152555363Y-52425241D01*
X152398320Y-52660273D01*
X152290147Y-52921426D01*
X152235000Y-53198665D01*
X152235000Y-53481335D01*
X152290147Y-53758574D01*
X152398320Y-54019727D01*
X152555363Y-54254759D01*
X152755241Y-54454637D01*
X152987759Y-54610000D01*
X152755241Y-54765363D01*
X152555363Y-54965241D01*
X152398320Y-55200273D01*
X152290147Y-55461426D01*
X152235000Y-55738665D01*
X152235000Y-56021335D01*
X152290147Y-56298574D01*
X152398320Y-56559727D01*
X152555363Y-56794759D01*
X152755241Y-56994637D01*
X152987759Y-57150000D01*
X152755241Y-57305363D01*
X152555363Y-57505241D01*
X152398320Y-57740273D01*
X152290147Y-58001426D01*
X152235000Y-58278665D01*
X152235000Y-58561335D01*
X152290147Y-58838574D01*
X152398320Y-59099727D01*
X152555363Y-59334759D01*
X152755241Y-59534637D01*
X152987759Y-59690000D01*
X152755241Y-59845363D01*
X152555363Y-60045241D01*
X152398320Y-60280273D01*
X152290147Y-60541426D01*
X152235000Y-60818665D01*
X152235000Y-61101335D01*
X152290147Y-61378574D01*
X152398320Y-61639727D01*
X152555363Y-61874759D01*
X152755241Y-62074637D01*
X152987759Y-62230000D01*
X152755241Y-62385363D01*
X152555363Y-62585241D01*
X152398320Y-62820273D01*
X152290147Y-63081426D01*
X152235000Y-63358665D01*
X152235000Y-63641335D01*
X152290147Y-63918574D01*
X152398320Y-64179727D01*
X152555363Y-64414759D01*
X152755241Y-64614637D01*
X152987759Y-64770000D01*
X152755241Y-64925363D01*
X152555363Y-65125241D01*
X152398320Y-65360273D01*
X152290147Y-65621426D01*
X152235000Y-65898665D01*
X152235000Y-66181335D01*
X152290147Y-66458574D01*
X152398320Y-66719727D01*
X152555363Y-66954759D01*
X152755241Y-67154637D01*
X152987759Y-67310000D01*
X152755241Y-67465363D01*
X152555363Y-67665241D01*
X152398320Y-67900273D01*
X152290147Y-68161426D01*
X152235000Y-68438665D01*
X152235000Y-68721335D01*
X152290147Y-68998574D01*
X152398320Y-69259727D01*
X152555363Y-69494759D01*
X152755241Y-69694637D01*
X152987759Y-69850000D01*
X152755241Y-70005363D01*
X152555363Y-70205241D01*
X152398320Y-70440273D01*
X152290147Y-70701426D01*
X152235000Y-70978665D01*
X152235000Y-71261335D01*
X152290147Y-71538574D01*
X152398320Y-71799727D01*
X152555363Y-72034759D01*
X152755241Y-72234637D01*
X152987759Y-72390000D01*
X152755241Y-72545363D01*
X152555363Y-72745241D01*
X152398320Y-72980273D01*
X152290147Y-73241426D01*
X152235000Y-73518665D01*
X152235000Y-73801335D01*
X152290147Y-74078574D01*
X152398320Y-74339727D01*
X152555363Y-74574759D01*
X152755241Y-74774637D01*
X152987759Y-74930000D01*
X152755241Y-75085363D01*
X152555363Y-75285241D01*
X152398320Y-75520273D01*
X152290147Y-75781426D01*
X152235000Y-76058665D01*
X152235000Y-76341335D01*
X152290147Y-76618574D01*
X152398320Y-76879727D01*
X152555363Y-77114759D01*
X152755241Y-77314637D01*
X152987759Y-77470000D01*
X152755241Y-77625363D01*
X152555363Y-77825241D01*
X152398320Y-78060273D01*
X152290147Y-78321426D01*
X152235000Y-78598665D01*
X152235000Y-78881335D01*
X152290147Y-79158574D01*
X152398320Y-79419727D01*
X152555363Y-79654759D01*
X152755241Y-79854637D01*
X152987759Y-80010000D01*
X152755241Y-80165363D01*
X152555363Y-80365241D01*
X152398320Y-80600273D01*
X152290147Y-80861426D01*
X152235000Y-81138665D01*
X152235000Y-81421335D01*
X152290147Y-81698574D01*
X152398320Y-81959727D01*
X152555363Y-82194759D01*
X152755241Y-82394637D01*
X152990273Y-82551680D01*
X153251426Y-82659853D01*
X153528665Y-82715000D01*
X153811335Y-82715000D01*
X154088574Y-82659853D01*
X154349727Y-82551680D01*
X154584759Y-82394637D01*
X154784637Y-82194759D01*
X154941680Y-81959727D01*
X155049853Y-81698574D01*
X155105000Y-81421335D01*
X155105000Y-81138665D01*
X155049853Y-80861426D01*
X154941680Y-80600273D01*
X154784637Y-80365241D01*
X154584759Y-80165363D01*
X154352241Y-80010000D01*
X154584759Y-79854637D01*
X154784637Y-79654759D01*
X154941680Y-79419727D01*
X155049853Y-79158574D01*
X155105000Y-78881335D01*
X155105000Y-78598665D01*
X155049853Y-78321426D01*
X154941680Y-78060273D01*
X154784637Y-77825241D01*
X154584759Y-77625363D01*
X154352241Y-77470000D01*
X154584759Y-77314637D01*
X154784637Y-77114759D01*
X154941680Y-76879727D01*
X155049853Y-76618574D01*
X155105000Y-76341335D01*
X155105000Y-76058665D01*
X155049853Y-75781426D01*
X154941680Y-75520273D01*
X154784637Y-75285241D01*
X154584759Y-75085363D01*
X154352241Y-74930000D01*
X154584759Y-74774637D01*
X154784637Y-74574759D01*
X154941680Y-74339727D01*
X155049853Y-74078574D01*
X155105000Y-73801335D01*
X155105000Y-73518665D01*
X155049853Y-73241426D01*
X154941680Y-72980273D01*
X154784637Y-72745241D01*
X154584759Y-72545363D01*
X154352241Y-72390000D01*
X154584759Y-72234637D01*
X154784637Y-72034759D01*
X154941680Y-71799727D01*
X155049853Y-71538574D01*
X155105000Y-71261335D01*
X155105000Y-70978665D01*
X155049853Y-70701426D01*
X154941680Y-70440273D01*
X154784637Y-70205241D01*
X154584759Y-70005363D01*
X154352241Y-69850000D01*
X154584759Y-69694637D01*
X154784637Y-69494759D01*
X154941680Y-69259727D01*
X155049853Y-68998574D01*
X155105000Y-68721335D01*
X155105000Y-68438665D01*
X155049853Y-68161426D01*
X154941680Y-67900273D01*
X154784637Y-67665241D01*
X154584759Y-67465363D01*
X154352241Y-67310000D01*
X154584759Y-67154637D01*
X154784637Y-66954759D01*
X154941680Y-66719727D01*
X155049853Y-66458574D01*
X155105000Y-66181335D01*
X155105000Y-65898665D01*
X155049853Y-65621426D01*
X154941680Y-65360273D01*
X154784637Y-65125241D01*
X154584759Y-64925363D01*
X154352241Y-64770000D01*
X154584759Y-64614637D01*
X154784637Y-64414759D01*
X154941680Y-64179727D01*
X155049853Y-63918574D01*
X155105000Y-63641335D01*
X155105000Y-63358665D01*
X155049853Y-63081426D01*
X154941680Y-62820273D01*
X154784637Y-62585241D01*
X154584759Y-62385363D01*
X154352241Y-62230000D01*
X154584759Y-62074637D01*
X154784637Y-61874759D01*
X154941680Y-61639727D01*
X155049853Y-61378574D01*
X155105000Y-61101335D01*
X155105000Y-60818665D01*
X155049853Y-60541426D01*
X154941680Y-60280273D01*
X154784637Y-60045241D01*
X154584759Y-59845363D01*
X154352241Y-59690000D01*
X154584759Y-59534637D01*
X154784637Y-59334759D01*
X154941680Y-59099727D01*
X155049853Y-58838574D01*
X155105000Y-58561335D01*
X155105000Y-58278665D01*
X155049853Y-58001426D01*
X154941680Y-57740273D01*
X154784637Y-57505241D01*
X154584759Y-57305363D01*
X154352241Y-57150000D01*
X154584759Y-56994637D01*
X154784637Y-56794759D01*
X154941680Y-56559727D01*
X155049853Y-56298574D01*
X155105000Y-56021335D01*
X155105000Y-55738665D01*
X155049853Y-55461426D01*
X154941680Y-55200273D01*
X154784637Y-54965241D01*
X154584759Y-54765363D01*
X154352241Y-54610000D01*
X154584759Y-54454637D01*
X154784637Y-54254759D01*
X154941680Y-54019727D01*
X155049853Y-53758574D01*
X155105000Y-53481335D01*
X155105000Y-53198665D01*
X155049853Y-52921426D01*
X154941680Y-52660273D01*
X154784637Y-52425241D01*
X154584759Y-52225363D01*
X154352241Y-52070000D01*
X154584759Y-51914637D01*
X154784637Y-51714759D01*
X154941680Y-51479727D01*
X155049853Y-51218574D01*
X155105000Y-50941335D01*
X155105000Y-50658665D01*
X155049853Y-50381426D01*
X154941680Y-50120273D01*
X154784637Y-49885241D01*
X154584759Y-49685363D01*
X154352241Y-49530000D01*
X154584759Y-49374637D01*
X154784637Y-49174759D01*
X154941680Y-48939727D01*
X155049853Y-48678574D01*
X155105000Y-48401335D01*
X155105000Y-48118665D01*
X155049853Y-47841426D01*
X154941680Y-47580273D01*
X154784637Y-47345241D01*
X154584759Y-47145363D01*
X154352241Y-46990000D01*
X154584759Y-46834637D01*
X154784637Y-46634759D01*
X154941680Y-46399727D01*
X155049853Y-46138574D01*
X155105000Y-45861335D01*
X155105000Y-45578665D01*
X155049853Y-45301426D01*
X154941680Y-45040273D01*
X154784637Y-44805241D01*
X154584759Y-44605363D01*
X154349727Y-44448320D01*
X154088574Y-44340147D01*
X153861406Y-44294960D01*
X152575563Y-43009117D01*
X157015000Y-43009117D01*
X157015000Y-43350883D01*
X157081675Y-43686081D01*
X157212463Y-44001831D01*
X157402337Y-44285998D01*
X157644002Y-44527663D01*
X157928169Y-44717537D01*
X158243919Y-44848325D01*
X158579117Y-44915000D01*
X158920883Y-44915000D01*
X159256081Y-44848325D01*
X159571831Y-44717537D01*
X159855998Y-44527663D01*
X160097663Y-44285998D01*
X160287537Y-44001831D01*
X160418325Y-43686081D01*
X160485000Y-43350883D01*
X160485000Y-43009117D01*
X160418325Y-42673919D01*
X160287537Y-42358169D01*
X160097663Y-42074002D01*
X159855998Y-41832337D01*
X159571831Y-41642463D01*
X159256081Y-41511675D01*
X158920883Y-41445000D01*
X158579117Y-41445000D01*
X158243919Y-41511675D01*
X157928169Y-41642463D01*
X157644002Y-41832337D01*
X157402337Y-42074002D01*
X157212463Y-42358169D01*
X157081675Y-42673919D01*
X157015000Y-43009117D01*
X152575563Y-43009117D01*
X152547928Y-42981483D01*
X152512134Y-42937868D01*
X152338090Y-42795033D01*
X152139524Y-42688898D01*
X151924068Y-42623540D01*
X151756147Y-42607001D01*
X151756140Y-42607001D01*
X151700001Y-42601472D01*
X151643862Y-42607001D01*
X127756137Y-42607001D01*
X127699998Y-42601472D01*
X127643859Y-42607001D01*
X127643853Y-42607001D01*
X127498599Y-42621307D01*
X127475931Y-42623540D01*
X127410573Y-42643366D01*
X127260476Y-42688898D01*
X127061910Y-42795033D01*
X126887866Y-42937868D01*
X126852071Y-42981484D01*
X126681319Y-43152236D01*
X126610595Y-43166304D01*
X126367641Y-43266939D01*
X126148987Y-43413038D01*
X125963038Y-43598987D01*
X125816939Y-43817641D01*
X125716304Y-44060595D01*
X125665000Y-44318514D01*
X121310000Y-44318514D01*
X121310000Y-40030000D01*
X161900000Y-40030000D01*
X161900001Y-88240000D01*
%TA.AperFunction,Conductor*%
D18*
G36*
X161900001Y-88240000D02*
G01*
X121310000Y-88240000D01*
X121310000Y-83649117D01*
X123995000Y-83649117D01*
X123995000Y-83990883D01*
X124061675Y-84326081D01*
X124192463Y-84641831D01*
X124382337Y-84925998D01*
X124624002Y-85167663D01*
X124908169Y-85357537D01*
X125223919Y-85488325D01*
X125559117Y-85555000D01*
X125900883Y-85555000D01*
X126236081Y-85488325D01*
X126551831Y-85357537D01*
X126835998Y-85167663D01*
X127077663Y-84925998D01*
X127267537Y-84641831D01*
X127398325Y-84326081D01*
X127465000Y-83990883D01*
X127465000Y-83649117D01*
X127398325Y-83313919D01*
X127267537Y-82998169D01*
X127077663Y-82714002D01*
X126835998Y-82472337D01*
X126551831Y-82282463D01*
X126236081Y-82151675D01*
X125900883Y-82085000D01*
X125559117Y-82085000D01*
X125223919Y-82151675D01*
X124908169Y-82282463D01*
X124624002Y-82472337D01*
X124382337Y-82714002D01*
X124192463Y-82998169D01*
X124061675Y-83313919D01*
X123995000Y-83649117D01*
X121310000Y-83649117D01*
X121310000Y-71120000D01*
X124581470Y-71120000D01*
X124603539Y-71344067D01*
X124668897Y-71559523D01*
X124775032Y-71758089D01*
X124917867Y-71932133D01*
X125091911Y-72074968D01*
X125290477Y-72181103D01*
X125370332Y-72205327D01*
X125374188Y-72244482D01*
X125410498Y-72364180D01*
X125469463Y-72474494D01*
X125548815Y-72571185D01*
X125645506Y-72650537D01*
X125755820Y-72709502D01*
X125875518Y-72745812D01*
X126000000Y-72758072D01*
X128000000Y-72758072D01*
X128124482Y-72745812D01*
X128244180Y-72709502D01*
X128354494Y-72650537D01*
X128451185Y-72571185D01*
X128530537Y-72474494D01*
X128589502Y-72364180D01*
X128620195Y-72263000D01*
X137557689Y-72263000D01*
X137747759Y-72390000D01*
X137515241Y-72545363D01*
X137315363Y-72745241D01*
X137158320Y-72980273D01*
X137050147Y-73241426D01*
X136995000Y-73518665D01*
X136995000Y-73801335D01*
X137050147Y-74078574D01*
X137158320Y-74339727D01*
X137315363Y-74574759D01*
X137515241Y-74774637D01*
X137747759Y-74930000D01*
X137515241Y-75085363D01*
X137315363Y-75285241D01*
X137158320Y-75520273D01*
X137050147Y-75781426D01*
X136995000Y-76058665D01*
X136995000Y-76341335D01*
X137050147Y-76618574D01*
X137158320Y-76879727D01*
X137315363Y-77114759D01*
X137515241Y-77314637D01*
X137747759Y-77470000D01*
X137515241Y-77625363D01*
X137315363Y-77825241D01*
X137158320Y-78060273D01*
X137050147Y-78321426D01*
X136995000Y-78598665D01*
X136995000Y-78881335D01*
X137050147Y-79158574D01*
X137158320Y-79419727D01*
X137315363Y-79654759D01*
X137515241Y-79854637D01*
X137747759Y-80010000D01*
X137515241Y-80165363D01*
X137315363Y-80365241D01*
X137158320Y-80600273D01*
X137050147Y-80861426D01*
X136995000Y-81138665D01*
X136995000Y-81421335D01*
X137050147Y-81698574D01*
X137158320Y-81959727D01*
X137315363Y-82194759D01*
X137515241Y-82394637D01*
X137750273Y-82551680D01*
X138011426Y-82659853D01*
X138288665Y-82715000D01*
X138571335Y-82715000D01*
X138848574Y-82659853D01*
X139109727Y-82551680D01*
X139344759Y-82394637D01*
X139544637Y-82194759D01*
X139701680Y-81959727D01*
X139809853Y-81698574D01*
X139865000Y-81421335D01*
X139865000Y-81138665D01*
X139809853Y-80861426D01*
X139701680Y-80600273D01*
X139544637Y-80365241D01*
X139344759Y-80165363D01*
X139112241Y-80010000D01*
X139344759Y-79854637D01*
X139544637Y-79654759D01*
X139701680Y-79419727D01*
X139809853Y-79158574D01*
X139865000Y-78881335D01*
X139865000Y-78598665D01*
X139809853Y-78321426D01*
X139701680Y-78060273D01*
X139544637Y-77825241D01*
X139344759Y-77625363D01*
X139112241Y-77470000D01*
X139344759Y-77314637D01*
X139544637Y-77114759D01*
X139701680Y-76879727D01*
X139809853Y-76618574D01*
X139865000Y-76341335D01*
X139865000Y-76058665D01*
X139809853Y-75781426D01*
X139701680Y-75520273D01*
X139544637Y-75285241D01*
X139344759Y-75085363D01*
X139112241Y-74930000D01*
X139344759Y-74774637D01*
X139544637Y-74574759D01*
X139701680Y-74339727D01*
X139809853Y-74078574D01*
X139865000Y-73801335D01*
X139865000Y-73518665D01*
X139809853Y-73241426D01*
X139701680Y-72980273D01*
X139544637Y-72745241D01*
X139344759Y-72545363D01*
X139112241Y-72390000D01*
X139344759Y-72234637D01*
X139544637Y-72034759D01*
X139701680Y-71799727D01*
X139809853Y-71538574D01*
X139865000Y-71261335D01*
X139865000Y-70978665D01*
X139809853Y-70701426D01*
X139701680Y-70440273D01*
X139544637Y-70205241D01*
X139344759Y-70005363D01*
X139112241Y-69850000D01*
X139344759Y-69694637D01*
X139544637Y-69494759D01*
X139701680Y-69259727D01*
X139809853Y-68998574D01*
X139865000Y-68721335D01*
X139865000Y-68438665D01*
X139809853Y-68161426D01*
X139701680Y-67900273D01*
X139544637Y-67665241D01*
X139344759Y-67465363D01*
X139112241Y-67310000D01*
X139344759Y-67154637D01*
X139544637Y-66954759D01*
X139701680Y-66719727D01*
X139809853Y-66458574D01*
X139865000Y-66181335D01*
X139865000Y-65898665D01*
X139809853Y-65621426D01*
X139701680Y-65360273D01*
X139544637Y-65125241D01*
X139344759Y-64925363D01*
X139112241Y-64770000D01*
X139344759Y-64614637D01*
X139544637Y-64414759D01*
X139701680Y-64179727D01*
X139809853Y-63918574D01*
X139865000Y-63641335D01*
X139865000Y-63358665D01*
X139809853Y-63081426D01*
X139701680Y-62820273D01*
X139544637Y-62585241D01*
X139344759Y-62385363D01*
X139112241Y-62230000D01*
X139344759Y-62074637D01*
X139544637Y-61874759D01*
X139701680Y-61639727D01*
X139809853Y-61378574D01*
X139865000Y-61101335D01*
X139865000Y-60818665D01*
X139809853Y-60541426D01*
X139701680Y-60280273D01*
X139544637Y-60045241D01*
X139344759Y-59845363D01*
X139112241Y-59690000D01*
X139344759Y-59534637D01*
X139544637Y-59334759D01*
X139701680Y-59099727D01*
X139809853Y-58838574D01*
X139865000Y-58561335D01*
X139865000Y-58278665D01*
X139809853Y-58001426D01*
X139701680Y-57740273D01*
X139544637Y-57505241D01*
X139344759Y-57305363D01*
X139112241Y-57150000D01*
X139344759Y-56994637D01*
X139544637Y-56794759D01*
X139701680Y-56559727D01*
X139809853Y-56298574D01*
X139865000Y-56021335D01*
X139865000Y-55738665D01*
X139809853Y-55461426D01*
X139701680Y-55200273D01*
X139544637Y-54965241D01*
X139344759Y-54765363D01*
X139109727Y-54608320D01*
X139099135Y-54603933D01*
X139285131Y-54492385D01*
X139493519Y-54303414D01*
X139661037Y-54077420D01*
X139781246Y-53823087D01*
X139821904Y-53689039D01*
X139699915Y-53467000D01*
X138557000Y-53467000D01*
X138557000Y-53487000D01*
X138303000Y-53487000D01*
X138303000Y-53467000D01*
X137160085Y-53467000D01*
X137038096Y-53689039D01*
X137078754Y-53823087D01*
X137198963Y-54077420D01*
X137366481Y-54303414D01*
X137574869Y-54492385D01*
X137760865Y-54603933D01*
X137750273Y-54608320D01*
X137515241Y-54765363D01*
X137315363Y-54965241D01*
X137158320Y-55200273D01*
X137050147Y-55461426D01*
X136995000Y-55738665D01*
X136995000Y-56021335D01*
X137050147Y-56298574D01*
X137158320Y-56559727D01*
X137315363Y-56794759D01*
X137515241Y-56994637D01*
X137747759Y-57150000D01*
X137515241Y-57305363D01*
X137315363Y-57505241D01*
X137158320Y-57740273D01*
X137050147Y-58001426D01*
X136995000Y-58278665D01*
X136995000Y-58561335D01*
X137050147Y-58838574D01*
X137158320Y-59099727D01*
X137315363Y-59334759D01*
X137515241Y-59534637D01*
X137747759Y-59690000D01*
X137515241Y-59845363D01*
X137315363Y-60045241D01*
X137158320Y-60280273D01*
X137050147Y-60541426D01*
X136995000Y-60818665D01*
X136995000Y-61101335D01*
X137050147Y-61378574D01*
X137158320Y-61639727D01*
X137315363Y-61874759D01*
X137515241Y-62074637D01*
X137747759Y-62230000D01*
X137515241Y-62385363D01*
X137315363Y-62585241D01*
X137158320Y-62820273D01*
X137050147Y-63081426D01*
X136995000Y-63358665D01*
X136995000Y-63641335D01*
X137050147Y-63918574D01*
X137158320Y-64179727D01*
X137315363Y-64414759D01*
X137515241Y-64614637D01*
X137747759Y-64770000D01*
X137515241Y-64925363D01*
X137315363Y-65125241D01*
X137158320Y-65360273D01*
X137050147Y-65621426D01*
X136995000Y-65898665D01*
X136995000Y-66181335D01*
X137050147Y-66458574D01*
X137158320Y-66719727D01*
X137315363Y-66954759D01*
X137515241Y-67154637D01*
X137747759Y-67310000D01*
X137515241Y-67465363D01*
X137315363Y-67665241D01*
X137158320Y-67900273D01*
X137050147Y-68161426D01*
X136995000Y-68438665D01*
X136995000Y-68721335D01*
X137050147Y-68998574D01*
X137158320Y-69259727D01*
X137315363Y-69494759D01*
X137515241Y-69694637D01*
X137747759Y-69850000D01*
X137557689Y-69977000D01*
X128620195Y-69977000D01*
X128589502Y-69875820D01*
X128530537Y-69765506D01*
X128451185Y-69668815D01*
X128354494Y-69589463D01*
X128244180Y-69530498D01*
X128124482Y-69494188D01*
X128000000Y-69481928D01*
X126000000Y-69481928D01*
X125875518Y-69494188D01*
X125755820Y-69530498D01*
X125645506Y-69589463D01*
X125548815Y-69668815D01*
X125469463Y-69765506D01*
X125410498Y-69875820D01*
X125374188Y-69995518D01*
X125370332Y-70034673D01*
X125290477Y-70058897D01*
X125091911Y-70165032D01*
X124917867Y-70307867D01*
X124775032Y-70481911D01*
X124668897Y-70680477D01*
X124603539Y-70895933D01*
X124581470Y-71120000D01*
X121310000Y-71120000D01*
X121310000Y-64655413D01*
X126044192Y-64655413D01*
X126139956Y-64919814D01*
X126429571Y-65060704D01*
X126741108Y-65142384D01*
X127062595Y-65161718D01*
X127381675Y-65117961D01*
X127686088Y-65012795D01*
X127860044Y-64919814D01*
X127955808Y-64655413D01*
X127000000Y-63699605D01*
X126044192Y-64655413D01*
X121310000Y-64655413D01*
X121310000Y-63582595D01*
X125358282Y-63582595D01*
X125402039Y-63901675D01*
X125507205Y-64206088D01*
X125600186Y-64380044D01*
X125864587Y-64475808D01*
X126820395Y-63520000D01*
X127179605Y-63520000D01*
X128135413Y-64475808D01*
X128399814Y-64380044D01*
X128540704Y-64090429D01*
X128622384Y-63778892D01*
X128641718Y-63457405D01*
X128597961Y-63138325D01*
X128492795Y-62833912D01*
X128399814Y-62659956D01*
X128135413Y-62564192D01*
X127179605Y-63520000D01*
X126820395Y-63520000D01*
X125864587Y-62564192D01*
X125600186Y-62659956D01*
X125459296Y-62949571D01*
X125377616Y-63261108D01*
X125358282Y-63582595D01*
X121310000Y-63582595D01*
X121310000Y-62384587D01*
X126044192Y-62384587D01*
X127000000Y-63340395D01*
X127955808Y-62384587D01*
X127860044Y-62120186D01*
X127570429Y-61979296D01*
X127258892Y-61897616D01*
X126937405Y-61878282D01*
X126618325Y-61922039D01*
X126313912Y-62027205D01*
X126139956Y-62120186D01*
X126044192Y-62384587D01*
X121310000Y-62384587D01*
X121310000Y-48960000D01*
X125661928Y-48960000D01*
X125674188Y-49084482D01*
X125710498Y-49204180D01*
X125769463Y-49314494D01*
X125848815Y-49411185D01*
X125945506Y-49490537D01*
X126055820Y-49549502D01*
X126175518Y-49585812D01*
X126300000Y-49598072D01*
X126714250Y-49595000D01*
X126873000Y-49436250D01*
X126873000Y-48387000D01*
X127127000Y-48387000D01*
X127127000Y-49436250D01*
X127285750Y-49595000D01*
X127700000Y-49598072D01*
X127824482Y-49585812D01*
X127944180Y-49549502D01*
X128054494Y-49490537D01*
X128151185Y-49411185D01*
X128230537Y-49314494D01*
X128289502Y-49204180D01*
X128325812Y-49084482D01*
X128338072Y-48960000D01*
X128335000Y-48545750D01*
X128176250Y-48387000D01*
X127127000Y-48387000D01*
X126873000Y-48387000D01*
X125823750Y-48387000D01*
X125665000Y-48545750D01*
X125661928Y-48960000D01*
X121310000Y-48960000D01*
X121310000Y-47560000D01*
X125661928Y-47560000D01*
X125665000Y-47974250D01*
X125823750Y-48133000D01*
X126873000Y-48133000D01*
X126873000Y-47083750D01*
X127127000Y-47083750D01*
X127127000Y-48133000D01*
X128176250Y-48133000D01*
X128335000Y-47974250D01*
X128338072Y-47560000D01*
X128325812Y-47435518D01*
X128289502Y-47315820D01*
X128230537Y-47205506D01*
X128151185Y-47108815D01*
X128054494Y-47029463D01*
X127944180Y-46970498D01*
X127824482Y-46934188D01*
X127700000Y-46921928D01*
X127285750Y-46925000D01*
X127127000Y-47083750D01*
X126873000Y-47083750D01*
X126714250Y-46925000D01*
X126300000Y-46921928D01*
X126175518Y-46934188D01*
X126055820Y-46970498D01*
X125945506Y-47029463D01*
X125848815Y-47108815D01*
X125769463Y-47205506D01*
X125710498Y-47315820D01*
X125674188Y-47435518D01*
X125661928Y-47560000D01*
X121310000Y-47560000D01*
X121310000Y-44318514D01*
X125665000Y-44318514D01*
X125665000Y-44581486D01*
X125716304Y-44839405D01*
X125816939Y-45082359D01*
X125963038Y-45301013D01*
X126148987Y-45486962D01*
X126367641Y-45633061D01*
X126610595Y-45733696D01*
X126868514Y-45785000D01*
X127131486Y-45785000D01*
X127389405Y-45733696D01*
X127632359Y-45633061D01*
X127851013Y-45486962D01*
X128036962Y-45301013D01*
X128183061Y-45082359D01*
X128261496Y-44893001D01*
X136994587Y-44893001D01*
X136991928Y-44920000D01*
X136991928Y-46520000D01*
X137004188Y-46644482D01*
X137040498Y-46764180D01*
X137099463Y-46874494D01*
X137178815Y-46971185D01*
X137275506Y-47050537D01*
X137385820Y-47109502D01*
X137505518Y-47145812D01*
X137513961Y-47146643D01*
X137315363Y-47345241D01*
X137158320Y-47580273D01*
X137050147Y-47841426D01*
X136995000Y-48118665D01*
X136995000Y-48401335D01*
X137050147Y-48678574D01*
X137158320Y-48939727D01*
X137315363Y-49174759D01*
X137515241Y-49374637D01*
X137747759Y-49530000D01*
X137515241Y-49685363D01*
X137315363Y-49885241D01*
X137158320Y-50120273D01*
X137050147Y-50381426D01*
X136995000Y-50658665D01*
X136995000Y-50941335D01*
X137050147Y-51218574D01*
X137158320Y-51479727D01*
X137315363Y-51714759D01*
X137515241Y-51914637D01*
X137750273Y-52071680D01*
X137760865Y-52076067D01*
X137574869Y-52187615D01*
X137366481Y-52376586D01*
X137198963Y-52602580D01*
X137078754Y-52856913D01*
X137038096Y-52990961D01*
X137160085Y-53213000D01*
X138303000Y-53213000D01*
X138303000Y-53193000D01*
X138557000Y-53193000D01*
X138557000Y-53213000D01*
X139699915Y-53213000D01*
X139821904Y-52990961D01*
X139781246Y-52856913D01*
X139661037Y-52602580D01*
X139493519Y-52376586D01*
X139285131Y-52187615D01*
X139099135Y-52076067D01*
X139109727Y-52071680D01*
X139344759Y-51914637D01*
X139544637Y-51714759D01*
X139701680Y-51479727D01*
X139809853Y-51218574D01*
X139865000Y-50941335D01*
X139865000Y-50658665D01*
X139809853Y-50381426D01*
X139701680Y-50120273D01*
X139544637Y-49885241D01*
X139344759Y-49685363D01*
X139112241Y-49530000D01*
X139344759Y-49374637D01*
X139544637Y-49174759D01*
X139701680Y-48939727D01*
X139809853Y-48678574D01*
X139865000Y-48401335D01*
X139865000Y-48118665D01*
X139809853Y-47841426D01*
X139701680Y-47580273D01*
X139544637Y-47345241D01*
X139346039Y-47146643D01*
X139354482Y-47145812D01*
X139474180Y-47109502D01*
X139584494Y-47050537D01*
X139681185Y-46971185D01*
X139760537Y-46874494D01*
X139819502Y-46764180D01*
X139855812Y-46644482D01*
X139868072Y-46520000D01*
X139868072Y-44920000D01*
X139865413Y-44893001D01*
X151226556Y-44893001D01*
X152244960Y-45911406D01*
X152290147Y-46138574D01*
X152398320Y-46399727D01*
X152555363Y-46634759D01*
X152755241Y-46834637D01*
X152987759Y-46990000D01*
X152755241Y-47145363D01*
X152555363Y-47345241D01*
X152398320Y-47580273D01*
X152290147Y-47841426D01*
X152235000Y-48118665D01*
X152235000Y-48401335D01*
X152290147Y-48678574D01*
X152398320Y-48939727D01*
X152555363Y-49174759D01*
X152755241Y-49374637D01*
X152987759Y-49530000D01*
X152755241Y-49685363D01*
X152555363Y-49885241D01*
X152398320Y-50120273D01*
X152290147Y-50381426D01*
X152235000Y-50658665D01*
X152235000Y-50941335D01*
X152290147Y-51218574D01*
X152398320Y-51479727D01*
X152555363Y-51714759D01*
X152755241Y-51914637D01*
X152987759Y-52070000D01*
X152755241Y-52225363D01*
X152555363Y-52425241D01*
X152398320Y-52660273D01*
X152290147Y-52921426D01*
X152235000Y-53198665D01*
X152235000Y-53481335D01*
X152290147Y-53758574D01*
X152398320Y-54019727D01*
X152555363Y-54254759D01*
X152755241Y-54454637D01*
X152987759Y-54610000D01*
X152755241Y-54765363D01*
X152555363Y-54965241D01*
X152398320Y-55200273D01*
X152290147Y-55461426D01*
X152235000Y-55738665D01*
X152235000Y-56021335D01*
X152290147Y-56298574D01*
X152398320Y-56559727D01*
X152555363Y-56794759D01*
X152755241Y-56994637D01*
X152987759Y-57150000D01*
X152755241Y-57305363D01*
X152555363Y-57505241D01*
X152398320Y-57740273D01*
X152290147Y-58001426D01*
X152235000Y-58278665D01*
X152235000Y-58561335D01*
X152290147Y-58838574D01*
X152398320Y-59099727D01*
X152555363Y-59334759D01*
X152755241Y-59534637D01*
X152987759Y-59690000D01*
X152755241Y-59845363D01*
X152555363Y-60045241D01*
X152398320Y-60280273D01*
X152290147Y-60541426D01*
X152235000Y-60818665D01*
X152235000Y-61101335D01*
X152290147Y-61378574D01*
X152398320Y-61639727D01*
X152555363Y-61874759D01*
X152755241Y-62074637D01*
X152987759Y-62230000D01*
X152755241Y-62385363D01*
X152555363Y-62585241D01*
X152398320Y-62820273D01*
X152290147Y-63081426D01*
X152235000Y-63358665D01*
X152235000Y-63641335D01*
X152290147Y-63918574D01*
X152398320Y-64179727D01*
X152555363Y-64414759D01*
X152755241Y-64614637D01*
X152987759Y-64770000D01*
X152755241Y-64925363D01*
X152555363Y-65125241D01*
X152398320Y-65360273D01*
X152290147Y-65621426D01*
X152235000Y-65898665D01*
X152235000Y-66181335D01*
X152290147Y-66458574D01*
X152398320Y-66719727D01*
X152555363Y-66954759D01*
X152755241Y-67154637D01*
X152987759Y-67310000D01*
X152755241Y-67465363D01*
X152555363Y-67665241D01*
X152398320Y-67900273D01*
X152290147Y-68161426D01*
X152235000Y-68438665D01*
X152235000Y-68721335D01*
X152290147Y-68998574D01*
X152398320Y-69259727D01*
X152555363Y-69494759D01*
X152755241Y-69694637D01*
X152987759Y-69850000D01*
X152755241Y-70005363D01*
X152555363Y-70205241D01*
X152398320Y-70440273D01*
X152290147Y-70701426D01*
X152235000Y-70978665D01*
X152235000Y-71261335D01*
X152290147Y-71538574D01*
X152398320Y-71799727D01*
X152555363Y-72034759D01*
X152755241Y-72234637D01*
X152987759Y-72390000D01*
X152755241Y-72545363D01*
X152555363Y-72745241D01*
X152398320Y-72980273D01*
X152290147Y-73241426D01*
X152235000Y-73518665D01*
X152235000Y-73801335D01*
X152290147Y-74078574D01*
X152398320Y-74339727D01*
X152555363Y-74574759D01*
X152755241Y-74774637D01*
X152987759Y-74930000D01*
X152755241Y-75085363D01*
X152555363Y-75285241D01*
X152398320Y-75520273D01*
X152290147Y-75781426D01*
X152235000Y-76058665D01*
X152235000Y-76341335D01*
X152290147Y-76618574D01*
X152398320Y-76879727D01*
X152555363Y-77114759D01*
X152755241Y-77314637D01*
X152987759Y-77470000D01*
X152755241Y-77625363D01*
X152555363Y-77825241D01*
X152398320Y-78060273D01*
X152290147Y-78321426D01*
X152235000Y-78598665D01*
X152235000Y-78881335D01*
X152290147Y-79158574D01*
X152398320Y-79419727D01*
X152555363Y-79654759D01*
X152755241Y-79854637D01*
X152987759Y-80010000D01*
X152755241Y-80165363D01*
X152555363Y-80365241D01*
X152398320Y-80600273D01*
X152290147Y-80861426D01*
X152235000Y-81138665D01*
X152235000Y-81421335D01*
X152290147Y-81698574D01*
X152398320Y-81959727D01*
X152555363Y-82194759D01*
X152755241Y-82394637D01*
X152990273Y-82551680D01*
X153251426Y-82659853D01*
X153528665Y-82715000D01*
X153811335Y-82715000D01*
X154088574Y-82659853D01*
X154349727Y-82551680D01*
X154584759Y-82394637D01*
X154784637Y-82194759D01*
X154941680Y-81959727D01*
X155049853Y-81698574D01*
X155105000Y-81421335D01*
X155105000Y-81138665D01*
X155049853Y-80861426D01*
X154941680Y-80600273D01*
X154784637Y-80365241D01*
X154584759Y-80165363D01*
X154352241Y-80010000D01*
X154584759Y-79854637D01*
X154784637Y-79654759D01*
X154941680Y-79419727D01*
X155049853Y-79158574D01*
X155105000Y-78881335D01*
X155105000Y-78598665D01*
X155049853Y-78321426D01*
X154941680Y-78060273D01*
X154784637Y-77825241D01*
X154584759Y-77625363D01*
X154352241Y-77470000D01*
X154584759Y-77314637D01*
X154784637Y-77114759D01*
X154941680Y-76879727D01*
X155049853Y-76618574D01*
X155105000Y-76341335D01*
X155105000Y-76058665D01*
X155049853Y-75781426D01*
X154941680Y-75520273D01*
X154784637Y-75285241D01*
X154584759Y-75085363D01*
X154352241Y-74930000D01*
X154584759Y-74774637D01*
X154784637Y-74574759D01*
X154941680Y-74339727D01*
X155049853Y-74078574D01*
X155105000Y-73801335D01*
X155105000Y-73518665D01*
X155049853Y-73241426D01*
X154941680Y-72980273D01*
X154784637Y-72745241D01*
X154584759Y-72545363D01*
X154352241Y-72390000D01*
X154584759Y-72234637D01*
X154784637Y-72034759D01*
X154941680Y-71799727D01*
X155049853Y-71538574D01*
X155105000Y-71261335D01*
X155105000Y-70978665D01*
X155049853Y-70701426D01*
X154941680Y-70440273D01*
X154784637Y-70205241D01*
X154584759Y-70005363D01*
X154352241Y-69850000D01*
X154584759Y-69694637D01*
X154784637Y-69494759D01*
X154941680Y-69259727D01*
X155049853Y-68998574D01*
X155105000Y-68721335D01*
X155105000Y-68438665D01*
X155049853Y-68161426D01*
X154941680Y-67900273D01*
X154784637Y-67665241D01*
X154584759Y-67465363D01*
X154352241Y-67310000D01*
X154584759Y-67154637D01*
X154784637Y-66954759D01*
X154941680Y-66719727D01*
X155049853Y-66458574D01*
X155105000Y-66181335D01*
X155105000Y-65898665D01*
X155049853Y-65621426D01*
X154941680Y-65360273D01*
X154784637Y-65125241D01*
X154584759Y-64925363D01*
X154352241Y-64770000D01*
X154584759Y-64614637D01*
X154784637Y-64414759D01*
X154941680Y-64179727D01*
X155049853Y-63918574D01*
X155105000Y-63641335D01*
X155105000Y-63358665D01*
X155049853Y-63081426D01*
X154941680Y-62820273D01*
X154784637Y-62585241D01*
X154584759Y-62385363D01*
X154352241Y-62230000D01*
X154584759Y-62074637D01*
X154784637Y-61874759D01*
X154941680Y-61639727D01*
X155049853Y-61378574D01*
X155105000Y-61101335D01*
X155105000Y-60818665D01*
X155049853Y-60541426D01*
X154941680Y-60280273D01*
X154784637Y-60045241D01*
X154584759Y-59845363D01*
X154352241Y-59690000D01*
X154584759Y-59534637D01*
X154784637Y-59334759D01*
X154941680Y-59099727D01*
X155049853Y-58838574D01*
X155105000Y-58561335D01*
X155105000Y-58278665D01*
X155049853Y-58001426D01*
X154941680Y-57740273D01*
X154784637Y-57505241D01*
X154584759Y-57305363D01*
X154352241Y-57150000D01*
X154584759Y-56994637D01*
X154784637Y-56794759D01*
X154941680Y-56559727D01*
X155049853Y-56298574D01*
X155105000Y-56021335D01*
X155105000Y-55738665D01*
X155049853Y-55461426D01*
X154941680Y-55200273D01*
X154784637Y-54965241D01*
X154584759Y-54765363D01*
X154352241Y-54610000D01*
X154584759Y-54454637D01*
X154784637Y-54254759D01*
X154941680Y-54019727D01*
X155049853Y-53758574D01*
X155105000Y-53481335D01*
X155105000Y-53198665D01*
X155049853Y-52921426D01*
X154941680Y-52660273D01*
X154784637Y-52425241D01*
X154584759Y-52225363D01*
X154352241Y-52070000D01*
X154584759Y-51914637D01*
X154784637Y-51714759D01*
X154941680Y-51479727D01*
X155049853Y-51218574D01*
X155105000Y-50941335D01*
X155105000Y-50658665D01*
X155049853Y-50381426D01*
X154941680Y-50120273D01*
X154784637Y-49885241D01*
X154584759Y-49685363D01*
X154352241Y-49530000D01*
X154584759Y-49374637D01*
X154784637Y-49174759D01*
X154941680Y-48939727D01*
X155049853Y-48678574D01*
X155105000Y-48401335D01*
X155105000Y-48118665D01*
X155049853Y-47841426D01*
X154941680Y-47580273D01*
X154784637Y-47345241D01*
X154584759Y-47145363D01*
X154352241Y-46990000D01*
X154584759Y-46834637D01*
X154784637Y-46634759D01*
X154941680Y-46399727D01*
X155049853Y-46138574D01*
X155105000Y-45861335D01*
X155105000Y-45578665D01*
X155049853Y-45301426D01*
X154941680Y-45040273D01*
X154784637Y-44805241D01*
X154584759Y-44605363D01*
X154349727Y-44448320D01*
X154088574Y-44340147D01*
X153861406Y-44294960D01*
X152575563Y-43009117D01*
X157015000Y-43009117D01*
X157015000Y-43350883D01*
X157081675Y-43686081D01*
X157212463Y-44001831D01*
X157402337Y-44285998D01*
X157644002Y-44527663D01*
X157928169Y-44717537D01*
X158243919Y-44848325D01*
X158579117Y-44915000D01*
X158920883Y-44915000D01*
X159256081Y-44848325D01*
X159571831Y-44717537D01*
X159855998Y-44527663D01*
X160097663Y-44285998D01*
X160287537Y-44001831D01*
X160418325Y-43686081D01*
X160485000Y-43350883D01*
X160485000Y-43009117D01*
X160418325Y-42673919D01*
X160287537Y-42358169D01*
X160097663Y-42074002D01*
X159855998Y-41832337D01*
X159571831Y-41642463D01*
X159256081Y-41511675D01*
X158920883Y-41445000D01*
X158579117Y-41445000D01*
X158243919Y-41511675D01*
X157928169Y-41642463D01*
X157644002Y-41832337D01*
X157402337Y-42074002D01*
X157212463Y-42358169D01*
X157081675Y-42673919D01*
X157015000Y-43009117D01*
X152575563Y-43009117D01*
X152547928Y-42981483D01*
X152512134Y-42937868D01*
X152338090Y-42795033D01*
X152139524Y-42688898D01*
X151924068Y-42623540D01*
X151756147Y-42607001D01*
X151756140Y-42607001D01*
X151700001Y-42601472D01*
X151643862Y-42607001D01*
X127756137Y-42607001D01*
X127699998Y-42601472D01*
X127643859Y-42607001D01*
X127643853Y-42607001D01*
X127498599Y-42621307D01*
X127475931Y-42623540D01*
X127410573Y-42643366D01*
X127260476Y-42688898D01*
X127061910Y-42795033D01*
X126887866Y-42937868D01*
X126852071Y-42981484D01*
X126681319Y-43152236D01*
X126610595Y-43166304D01*
X126367641Y-43266939D01*
X126148987Y-43413038D01*
X125963038Y-43598987D01*
X125816939Y-43817641D01*
X125716304Y-44060595D01*
X125665000Y-44318514D01*
X121310000Y-44318514D01*
X121310000Y-40030000D01*
X161900000Y-40030000D01*
X161900001Y-88240000D01*
G37*
%TD.AperFunction*%
%TD*%
M02*
